<svg xmlns="http://www.w3.org/2000/svg" viewBox="0 0 512 512">
  <defs>
    <linearGradient id="cloudGradient" x1="0%" y1="0%" x2="100%" y2="100%">
      <stop offset="0%" style="stop-color:#2563eb"/>
      <stop offset="100%" style="stop-color:#06b6d4"/>
    </linearGradient>
    <linearGradient id="innerGradient" x1="0%" y1="0%" x2="100%" y2="100%">
      <stop offset="0%" style="stop-color:#3b82f6"/>
      <stop offset="100%" style="stop-color:#22d3ee"/>
    </linearGradient>
  </defs>
  
  <!-- Background circle -->
  <circle cx="256" cy="256" r="240" fill="url(#cloudGradient)" opacity="0.1"/>
  
  <!-- Main cloud shape -->
  <path d="M380 280c0-44.1-35.9-80-80-80-5.2 0-10.3 0.5-15.3 1.5C271.6 161.5 235.4 136 192 136c-57.4 0-104 46.6-104 104 0 4 0.2 7.9 0.7 11.8C56.3 264.2 32 297.4 32 336c0 48.5 39.5 88 88 88h260c37.6 0 68-30.4 68-68C448 320.4 417.6 286 380 280z" 
        fill="url(#cloudGradient)" 
        transform="translate(24, 0)"/>
  
  <!-- Inner tech elements - circuit lines -->
  <g stroke="white" stroke-width="3" fill="none" opacity="0.6">
    <circle cx="200" cy="300" r="8" fill="white"/>
    <circle cx="280" cy="280" r="8" fill="white"/>
    <circle cx="340" cy="320" r="8" fill="white"/>
    <line x1="208" y1="300" x2="272" y2="280"/>
    <line x1="288" y1="280" x2="332" y2="320"/>
  </g>
  
  <!-- Industrial gear accent -->
  <g transform="translate(320, 220) scale(0.4)" fill="white" opacity="0.8">
    <path d="M50 0 L55 15 L70 15 L58 25 L63 40 L50 30 L37 40 L42 25 L30 15 L45 15 Z"/>
  </g>
</svg>
